<svg xmlns="http://www.w3.org/2000/svg" xmlns:xlink="http://www.w3.org/1999/xlink" width="500" zoomAndPan="magnify" viewBox="0 0 375 374.999991" height="500" preserveAspectRatio="xMidYMid meet" version="1.0"><path fill="#b9b9b9" d="M 259.195312 186.171875 C 255.359375 186.171875 251.707031 185.402344 248.226562 183.855469 C 244.746094 182.3125 241.71875 180.136719 239.144531 177.332031 C 236.570312 174.527344 234.730469 171.226562 233.632812 167.425781 L 247.691406 163.699219 C 248.4375 166.503906 249.902344 168.675781 252.085938 170.222656 C 254.269531 171.765625 256.640625 172.539062 259.195312 172.539062 C 261.398438 172.539062 263.414062 172.003906 265.242188 170.941406 C 267.070312 169.878906 268.523438 168.4375 269.605469 166.628906 C 270.691406 164.816406 271.230469 162.8125 271.230469 160.609375 C 271.230469 157.304688 270.105469 154.476562 267.847656 152.113281 C 265.59375 149.753906 262.710938 148.574219 259.195312 148.574219 C 258.128906 148.574219 257.101562 148.726562 256.105469 149.027344 C 255.109375 149.328125 254.152344 149.746094 253.230469 150.277344 L 246.734375 138.878906 L 271.125 118.640625 L 272.191406 121.730469 L 236.613281 121.730469 L 236.613281 108.09375 L 284.546875 108.09375 L 284.546875 121.730469 L 265.589844 140.050781 L 265.484375 136.003906 C 269.886719 136.675781 273.605469 138.214844 276.640625 140.609375 C 279.675781 143.007812 281.984375 145.953125 283.5625 149.453125 C 285.144531 152.949219 285.933594 156.667969 285.933594 160.609375 C 285.933594 165.4375 284.707031 169.777344 282.257812 173.628906 C 279.808594 177.484375 276.558594 180.535156 272.511719 182.789062 C 268.464844 185.046875 264.027344 186.171875 259.195312 186.171875 Z M 259.195312 186.171875 " fill-opacity="1" fill-rule="nonzero"/><path fill="#b9b9b9" d="M 314.585938 186.382812 C 310.71875 186.382812 307.085938 185.585938 303.695312 183.988281 C 300.304688 182.390625 297.386719 180.171875 294.9375 177.328125 C 292.484375 174.488281 290.726562 171.1875 289.664062 167.421875 L 303.617188 163.695312 C 304.078125 165.503906 304.90625 167.070312 306.097656 168.378906 C 307.285156 169.695312 308.671875 170.714844 310.25 171.445312 C 311.832031 172.171875 313.457031 172.535156 315.125 172.535156 C 317.324219 172.535156 319.34375 172.003906 321.167969 170.9375 C 322.996094 169.875 324.453125 168.4375 325.535156 166.625 C 326.621094 164.8125 327.160156 162.808594 327.160156 160.605469 C 327.160156 158.402344 326.621094 156.398438 325.535156 154.585938 C 324.453125 152.777344 322.996094 151.335938 321.167969 150.273438 C 319.339844 149.210938 317.324219 148.675781 315.125 148.675781 C 312.425781 148.675781 310.226562 149.128906 308.519531 150.035156 C 306.816406 150.941406 305.539062 151.800781 304.683594 152.617188 L 292.4375 148.890625 L 294.78125 108.09375 L 336.644531 108.09375 L 336.644531 121.621094 L 302.769531 121.621094 L 307.882812 116.828125 L 306.289062 143.140625 L 303.835938 140.15625 C 305.753906 138.597656 307.9375 137.460938 310.386719 136.75 C 312.835938 136.039062 315.128906 135.6875 317.257812 135.6875 C 322.085938 135.6875 326.339844 136.761719 330.011719 138.90625 C 333.6875 141.058594 336.5625 144.003906 338.640625 147.75 C 340.71875 151.496094 341.757812 155.78125 341.757812 160.613281 C 341.757812 165.441406 340.496094 169.800781 337.976562 173.6875 C 335.453125 177.578125 332.136719 180.664062 328.015625 182.957031 C 323.898438 185.25 319.421875 186.394531 314.59375 186.394531 Z M 314.585938 186.382812 " fill-opacity="1" fill-rule="nonzero"/><path fill="#ff4040" d="M 236.566406 217.457031 L 243.640625 196.917969 L 246.421875 196.917969 L 253.496094 217.457031 L 251.3125 217.457031 L 244.59375 198.085938 L 245.421875 198.085938 L 238.746094 217.457031 L 236.5625 217.457031 Z M 239.71875 212.480469 L 239.71875 210.511719 L 250.332031 210.511719 L 250.332031 212.480469 Z M 239.71875 212.480469 " fill-opacity="1" fill-rule="nonzero"/><path fill="#ff4040" d="M 264.628906 217.457031 L 264.628906 196.917969 L 266.738281 196.917969 L 278.050781 213.75 L 278.050781 196.917969 L 280.160156 196.917969 L 280.160156 217.457031 L 278.050781 217.457031 L 266.738281 200.609375 L 266.738281 217.457031 Z M 274.910156 194.460938 C 274.5 194.460938 274.109375 194.382812 273.730469 194.21875 C 273.355469 194.058594 272.992188 193.871094 272.632812 193.65625 C 272.277344 193.441406 271.933594 193.253906 271.613281 193.09375 C 271.289062 192.929688 270.992188 192.851562 270.710938 192.851562 C 270.34375 192.851562 270.105469 192.996094 270 193.285156 C 269.894531 193.574219 269.894531 193.890625 270 194.21875 L 268.515625 194.21875 C 268.308594 193.371094 268.390625 192.652344 268.769531 192.058594 C 269.152344 191.464844 269.761719 191.167969 270.597656 191.167969 C 271.003906 191.167969 271.402344 191.25 271.789062 191.410156 C 272.171875 191.570312 272.542969 191.757812 272.902344 191.972656 C 273.257812 192.1875 273.597656 192.375 273.914062 192.535156 C 274.234375 192.699219 274.535156 192.777344 274.820312 192.777344 C 275.152344 192.777344 275.382812 192.636719 275.511719 192.351562 C 275.640625 192.066406 275.644531 191.738281 275.519531 191.367188 L 277.003906 191.367188 C 277.222656 192.203125 277.144531 192.929688 276.761719 193.542969 C 276.382812 194.15625 275.765625 194.460938 274.90625 194.460938 Z M 274.910156 194.460938 " fill-opacity="1" fill-rule="nonzero"/><path fill="#ff4040" d="M 301.03125 217.886719 C 298.984375 217.886719 297.257812 217.433594 295.851562 216.519531 C 294.445312 215.613281 293.378906 214.355469 292.65625 212.75 C 291.9375 211.140625 291.574219 209.289062 291.574219 207.1875 C 291.574219 205.082031 291.9375 203.230469 292.65625 201.621094 C 293.378906 200.015625 294.445312 198.757812 295.851562 197.851562 C 297.261719 196.941406 298.984375 196.488281 301.03125 196.488281 C 303.074219 196.488281 304.8125 196.945312 306.214844 197.851562 C 307.617188 198.757812 308.683594 200.015625 309.410156 201.621094 C 310.136719 203.230469 310.5 205.082031 310.5 207.1875 C 310.5 209.289062 310.136719 211.140625 309.410156 212.75 C 308.683594 214.355469 307.617188 215.617188 306.214844 216.519531 C 304.8125 217.429688 303.085938 217.886719 301.03125 217.886719 Z M 301.03125 215.875 C 302.636719 215.875 303.976562 215.507812 305.050781 214.773438 C 306.125 214.039062 306.933594 213.019531 307.472656 211.714844 C 308.007812 210.40625 308.277344 208.898438 308.277344 207.183594 C 308.277344 205.46875 308.007812 203.964844 307.472656 202.660156 C 306.933594 201.359375 306.125 200.339844 305.050781 199.609375 C 303.976562 198.875 302.636719 198.503906 301.03125 198.496094 C 299.421875 198.496094 298.085938 198.863281 297.023438 199.59375 C 295.957031 200.324219 295.15625 201.34375 294.617188 202.652344 C 294.082031 203.960938 293.808594 205.46875 293.800781 207.183594 C 293.792969 208.898438 294.054688 210.398438 294.589844 211.695312 C 295.128906 212.992188 295.9375 214.011719 297.011719 214.75 C 298.085938 215.484375 299.425781 215.859375 301.03125 215.867188 Z M 301.03125 215.875 " fill-opacity="1" fill-rule="nonzero"/><path fill="#ff4040" d="M 329.042969 217.886719 C 327.609375 217.886719 326.316406 217.644531 325.171875 217.164062 C 324.027344 216.6875 323.082031 216 322.332031 215.117188 C 321.585938 214.234375 321.101562 213.183594 320.871094 211.964844 L 323.011719 211.609375 C 323.351562 212.941406 324.074219 213.984375 325.179688 214.742188 C 326.285156 215.496094 327.601562 215.875 329.132812 215.875 C 330.140625 215.875 331.042969 215.714844 331.84375 215.394531 C 332.644531 215.078125 333.273438 214.625 333.726562 214.03125 C 334.183594 213.445312 334.410156 212.742188 334.410156 211.933594 C 334.410156 211.402344 334.316406 210.949219 334.125 210.570312 C 333.933594 210.195312 333.683594 209.886719 333.367188 209.636719 C 333.054688 209.390625 332.714844 209.183594 332.339844 209.019531 C 331.972656 208.851562 331.609375 208.714844 331.257812 208.613281 L 326.050781 207.058594 C 325.421875 206.878906 324.839844 206.648438 324.3125 206.367188 C 323.777344 206.085938 323.3125 205.75 322.917969 205.351562 C 322.523438 204.957031 322.21875 204.496094 322 203.960938 C 321.78125 203.425781 321.671875 202.820312 321.671875 202.136719 C 321.671875 200.976562 321.976562 199.972656 322.585938 199.125 C 323.195312 198.277344 324.027344 197.628906 325.082031 197.167969 C 326.140625 196.714844 327.339844 196.488281 328.691406 196.5 C 330.0625 196.5 331.285156 196.742188 332.363281 197.226562 C 333.445312 197.714844 334.335938 198.40625 335.039062 199.304688 C 335.742188 200.203125 336.207031 201.265625 336.433594 202.492188 L 334.238281 202.890625 C 334.097656 201.996094 333.765625 201.222656 333.253906 200.566406 C 332.742188 199.910156 332.089844 199.402344 331.292969 199.046875 C 330.5 198.691406 329.628906 198.507812 328.675781 198.496094 C 327.753906 198.496094 326.9375 198.652344 326.214844 198.960938 C 325.5 199.269531 324.929688 199.691406 324.511719 200.222656 C 324.089844 200.753906 323.882812 201.363281 323.882812 202.046875 C 323.882812 202.730469 324.074219 203.296875 324.460938 203.714844 C 324.847656 204.136719 325.320312 204.464844 325.890625 204.699219 C 326.457031 204.9375 327.003906 205.132812 327.535156 205.285156 L 331.558594 206.46875 C 331.976562 206.582031 332.46875 206.746094 333.035156 206.960938 C 333.601562 207.175781 334.152344 207.480469 334.691406 207.875 C 335.230469 208.269531 335.675781 208.785156 336.023438 209.421875 C 336.375 210.058594 336.550781 210.867188 336.550781 211.847656 C 336.550781 212.824219 336.363281 213.648438 335.988281 214.398438 C 335.613281 215.152344 335.085938 215.78125 334.40625 216.296875 C 333.722656 216.808594 332.929688 217.203125 332.023438 217.472656 C 331.113281 217.746094 330.121094 217.878906 329.046875 217.878906 Z M 329.042969 217.886719 " fill-opacity="1" fill-rule="nonzero"/><path fill="#e43d30" d="M 73.738281 231.667969 C 73.152344 231.710938 72.496094 231.785156 71.769531 231.890625 C 71.039062 231.996094 70.257812 232.191406 69.421875 232.484375 C 68.585938 232.773438 68.171875 233.148438 68.171875 233.613281 C 68.085938 234.988281 68.023438 238.828125 67.980469 245.128906 L 68.171875 270.160156 L 65.980469 270.160156 C 65.980469 270.160156 54.03125 253.828125 54.03125 253.828125 C 46.101562 242.9375 41.910156 237.265625 41.453125 236.804688 C 41.410156 240.351562 41.390625 243.253906 41.390625 245.503906 C 41.390625 248.34375 41.441406 251.054688 41.546875 253.640625 C 41.648438 256.226562 41.703125 259.441406 41.703125 263.277344 C 41.703125 264.027344 41.703125 264.863281 41.703125 265.78125 C 41.703125 267.492188 42.433594 268.347656 43.890625 268.347656 C 46.269531 268.347656 47.480469 268.390625 47.523438 268.472656 L 47.523438 269.601562 C 45.476562 269.476562 43.160156 269.414062 40.574219 269.414062 C 37.699219 269.414062 35.257812 269.496094 33.253906 269.664062 L 33.253906 268.660156 L 33.628906 268.660156 C 37.046875 268.660156 38.863281 268.179688 39.074219 267.222656 C 39.28125 254.789062 39.386719 247.511719 39.386719 245.382812 C 39.386719 242.167969 39.34375 238.457031 39.261719 234.242188 C 39.179688 233.785156 38.199219 233.160156 36.320312 232.363281 L 33.503906 231.238281 L 33.503906 230.109375 C 33.503906 230.109375 45.082031 230.171875 45.082031 230.171875 C 47.542969 233.59375 51.589844 238.972656 57.222656 246.316406 L 65.792969 257.328125 L 65.855469 233.613281 C 65.816406 233.027344 65.292969 232.558594 64.292969 232.203125 C 63.289062 231.847656 62.101562 231.667969 60.726562 231.667969 C 60.433594 231.667969 60.121094 231.667969 59.789062 231.667969 L 59.664062 230.230469 C 61.414062 230.4375 63.585938 230.546875 66.171875 230.546875 C 68.546875 230.546875 71.074219 230.460938 73.742188 230.296875 L 73.742188 231.671875 Z M 73.738281 231.667969 " fill-opacity="1" fill-rule="nonzero"/><path fill="#b9b9b9" d="M 102.289062 243.371094 C 106 243.371094 109.148438 244.667969 111.738281 247.25 C 114.324219 249.835938 115.617188 252.800781 115.617188 256.136719 C 115.617188 260.183594 114.53125 263.59375 112.363281 266.371094 C 110.195312 269.144531 107.003906 270.53125 102.789062 270.53125 C 94.03125 270.53125 89.648438 265.753906 89.648438 256.203125 C 89.648438 252.488281 90.945312 249.421875 93.53125 247 C 96.117188 244.582031 99.039062 243.375 102.289062 243.375 Z M 102.972656 268.964844 C 105.226562 268.964844 106.976562 267.921875 108.230469 265.835938 C 109.484375 263.75 110.109375 260.75 110.109375 256.824219 C 110.109375 253.574219 109.4375 250.722656 108.105469 248.285156 C 106.769531 245.84375 105.015625 244.625 102.847656 244.625 C 101.386719 244.625 100.136719 245.023438 99.09375 245.8125 C 98.046875 246.609375 97.289062 247.679688 96.808594 249.035156 C 96.328125 250.390625 95.972656 251.738281 95.742188 253.070312 C 95.515625 254.40625 95.398438 255.804688 95.398438 257.265625 C 95.398438 260.730469 96.066406 263.546875 97.402344 265.714844 C 98.738281 267.882812 100.59375 268.96875 102.96875 268.96875 Z M 102.972656 268.964844 " fill-opacity="1" fill-rule="nonzero"/><path fill="#b9b9b9" d="M 149.957031 245.3125 L 143.324219 245.3125 L 143.324219 262.335938 C 143.324219 264.128906 143.609375 265.566406 144.167969 266.648438 C 144.734375 267.738281 145.496094 268.277344 146.453125 268.277344 C 147.535156 268.277344 148.445312 267.839844 149.175781 266.964844 C 149.90625 266.089844 150.582031 264.773438 151.207031 263.023438 L 152.585938 263.710938 C 152.210938 264.710938 151.878906 265.488281 151.585938 266.027344 C 151.292969 266.570312 150.875 267.199219 150.332031 267.90625 C 149.792969 268.617188 149.121094 269.125 148.332031 269.4375 C 147.535156 269.753906 146.578125 269.910156 145.453125 269.910156 C 142.949219 269.910156 141.074219 269.199219 139.820312 267.78125 C 139.234375 267.15625 138.816406 266.269531 138.566406 265.121094 C 138.316406 263.972656 138.191406 262.296875 138.191406 260.082031 L 138.191406 245.3125 L 132.9375 245.3125 L 132.9375 244.5 C 133.9375 244.5 135.160156 244.214844 136.597656 243.65625 C 138.035156 243.089844 139.027344 242.476562 139.570312 241.808594 C 140.113281 241.101562 140.652344 240.089844 141.199219 238.773438 C 141.738281 237.457031 142.011719 236.15625 142.011719 234.859375 L 143.449219 234.859375 C 143.285156 236.195312 143.199219 238.238281 143.199219 240.992188 L 143.199219 243.808594 L 150.332031 243.683594 Z M 149.957031 245.3125 " fill-opacity="1" fill-rule="nonzero"/><path fill="#b9b9b9" d="M 180.234375 243.058594 C 180.152344 250.273438 180.109375 258.304688 180.109375 267.148438 C 180.273438 267.988281 181.738281 268.421875 184.488281 268.464844 L 184.488281 269.46875 C 182.777344 269.34375 180.507812 269.277344 177.667969 269.277344 C 174.828125 269.277344 172.785156 269.34375 171.160156 269.46875 L 171.160156 268.464844 C 173.660156 268.378906 174.976562 267.945312 175.101562 267.148438 L 175.101562 246.125 C 173.804688 245.707031 172.492188 245.5 171.160156 245.5 L 171.160156 244.5 C 174.914062 244.292969 177.941406 243.808594 180.234375 243.0625 Z M 177.351562 229.351562 C 178.3125 229.351562 179.1875 229.699219 179.980469 230.386719 C 180.773438 231.074219 181.167969 231.878906 181.167969 232.792969 C 181.167969 233.921875 180.804688 234.851562 180.074219 235.582031 C 179.34375 236.3125 178.4375 236.675781 177.351562 236.675781 C 176.558594 236.675781 175.789062 236.339844 175.035156 235.671875 C 174.285156 235.003906 173.910156 234.167969 173.910156 233.167969 C 173.910156 232.167969 174.273438 231.230469 175.007812 230.476562 C 175.738281 229.726562 176.515625 229.351562 177.351562 229.351562 Z M 177.351562 229.351562 " fill-opacity="1" fill-rule="nonzero"/><path fill="#b9b9b9" d="M 215.199219 243.496094 C 217.578125 243.496094 219.800781 244.195312 221.863281 245.59375 C 223.925781 246.992188 224.960938 248.714844 224.960938 250.757812 C 224.960938 252.386719 224.542969 253.617188 223.710938 254.449219 C 222.875 255.285156 222.042969 255.699219 221.207031 255.699219 C 218.871094 255.699219 217.703125 254.570312 217.703125 252.316406 C 217.703125 251.402344 217.976562 250.617188 218.515625 249.972656 C 219.058594 249.324219 219.664062 249 220.332031 249 C 221.082031 249 221.789062 249.292969 222.457031 249.875 C 221.621094 246.371094 219.160156 244.617188 215.074219 244.617188 C 213.070312 244.617188 211.382812 245.847656 210.003906 248.308594 C 208.625 250.773438 207.9375 253.859375 207.9375 257.570312 C 207.9375 260.367188 208.675781 262.859375 210.160156 265.046875 C 211.640625 267.238281 213.464844 268.332031 215.632812 268.332031 C 216.96875 268.332031 218.113281 268.125 219.074219 267.707031 C 220.035156 267.292969 220.804688 266.65625 221.390625 265.800781 C 221.976562 264.945312 222.351562 264.328125 222.519531 263.953125 C 222.6875 263.578125 222.9375 262.949219 223.269531 262.074219 L 225.023438 263.324219 C 224.394531 264.953125 223.238281 266.539062 221.550781 268.082031 C 219.859375 269.625 217.699219 270.398438 215.074219 270.398438 C 211.152344 270.398438 208.042969 269.207031 205.75 266.832031 C 203.453125 264.453125 202.308594 260.949219 202.308594 256.316406 C 202.308594 254.066406 202.746094 252.074219 203.621094 250.34375 C 204.496094 248.613281 205.625 247.277344 207 246.339844 C 208.378906 245.398438 209.753906 244.691406 211.132812 244.210938 C 212.507812 243.730469 213.863281 243.492188 215.199219 243.492188 Z M 215.199219 243.496094 " fill-opacity="1" fill-rule="nonzero"/><path fill="#b9b9b9" d="M 252.609375 243.058594 C 252.527344 250.273438 252.484375 258.304688 252.484375 267.148438 C 252.652344 267.988281 254.113281 268.421875 256.867188 268.464844 L 256.867188 269.46875 C 255.15625 269.34375 252.882812 269.277344 250.042969 269.277344 C 247.207031 269.277344 245.160156 269.34375 243.535156 269.46875 L 243.535156 268.464844 C 246.039062 268.378906 247.351562 267.945312 247.476562 267.148438 L 247.476562 246.125 C 246.183594 245.707031 244.871094 245.5 243.535156 245.5 L 243.535156 244.5 C 247.292969 244.292969 250.316406 243.808594 252.609375 243.0625 Z M 249.730469 229.351562 C 250.6875 229.351562 251.566406 229.699219 252.359375 230.386719 C 253.148438 231.074219 253.546875 231.878906 253.546875 232.792969 C 253.546875 233.921875 253.179688 234.851562 252.453125 235.582031 C 251.722656 236.3125 250.8125 236.675781 249.730469 236.675781 C 248.9375 236.675781 248.167969 236.339844 247.414062 235.671875 C 246.664062 235.003906 246.285156 234.167969 246.285156 233.167969 C 246.285156 232.167969 246.652344 231.230469 247.382812 230.476562 C 248.113281 229.726562 248.894531 229.351562 249.730469 229.351562 Z M 249.730469 229.351562 " fill-opacity="1" fill-rule="nonzero"/><path fill="#b9b9b9" d="M 299.84375 264.273438 L 300.78125 264.835938 C 300.242188 268.21875 298.238281 269.90625 294.773438 269.90625 C 293.355469 269.90625 292.292969 269.4375 291.582031 268.496094 C 290.871094 267.558594 290.457031 266.441406 290.332031 265.152344 C 289.496094 266.113281 288.859375 266.796875 288.425781 267.214844 C 287.988281 267.632812 287.164062 268.207031 285.953125 268.9375 C 284.742188 269.664062 283.535156 270.03125 282.324219 270.03125 C 280.238281 270.03125 278.441406 269.449219 276.941406 268.277344 C 275.4375 267.113281 274.6875 265.253906 274.6875 262.710938 C 274.6875 261.582031 274.925781 260.605469 275.40625 259.769531 C 275.886719 258.933594 276.554688 258.257812 277.410156 257.734375 C 278.265625 257.210938 279.132812 256.789062 280.007812 256.453125 C 280.882812 256.117188 281.902344 255.878906 283.074219 255.730469 C 284.238281 255.585938 285.207031 255.492188 285.984375 255.449219 C 286.753906 255.40625 287.609375 255.375 288.550781 255.355469 C 289.488281 255.335938 290 255.328125 290.082031 255.328125 C 290.207031 255.328125 290.269531 253.78125 290.269531 250.695312 C 290.269531 246.734375 288.457031 244.753906 284.824219 244.753906 C 283.574219 244.753906 282.574219 245.023438 281.824219 245.566406 C 281.074219 246.109375 280.613281 246.753906 280.445312 247.503906 C 281.652344 247.503906 282.257812 248.421875 282.257812 250.257812 C 282.257812 251.386719 281.882812 252.1875 281.132812 252.664062 C 280.382812 253.144531 279.652344 253.382812 278.941406 253.382812 C 278.148438 253.382812 277.4375 253.019531 276.8125 252.289062 C 276.1875 251.558594 275.875 250.757812 275.875 249.882812 C 275.875 248.339844 276.855469 246.839844 278.816406 245.378906 C 280.402344 244.167969 282.589844 243.5625 285.386719 243.5625 C 288.015625 243.5625 290.351562 244.375 292.394531 246.003906 C 294.4375 247.628906 295.460938 249.839844 295.460938 252.636719 C 295.460938 254.011719 295.417969 255.933594 295.335938 258.394531 C 295.253906 260.855469 295.210938 262.628906 295.210938 263.710938 C 295.210938 266.507812 295.859375 267.882812 297.148438 267.84375 C 297.898438 267.84375 298.464844 267.570312 298.839844 267.027344 C 299.214844 266.488281 299.546875 265.570312 299.839844 264.277344 Z M 290.082031 263.582031 L 290.082031 256.203125 C 288.621094 256.328125 287.273438 256.460938 286.046875 256.605469 C 284.816406 256.753906 283.761719 256.980469 282.886719 257.296875 C 282.011719 257.609375 281.324219 258.140625 280.824219 258.894531 C 280.324219 259.644531 280.074219 260.6875 280.074219 262.019531 C 280.074219 263.816406 280.523438 265.128906 281.421875 265.960938 C 282.316406 266.792969 283.453125 267.210938 284.832031 267.210938 C 287 267.210938 288.753906 266.003906 290.089844 263.582031 Z M 290.082031 263.582031 " fill-opacity="1" fill-rule="nonzero"/><path fill="#b9b9b9" d="M 325.988281 270.28125 C 325.152344 270.28125 324.152344 270.074219 322.984375 269.65625 C 321.8125 269.238281 320.832031 268.84375 320.042969 268.46875 L 318.976562 267.777344 L 318.664062 269.59375 L 317.476562 269.59375 L 317.351562 260.832031 L 318.414062 260.957031 C 318.621094 263 319.375 264.867188 320.667969 266.554688 C 321.960938 268.246094 323.734375 269.09375 325.984375 269.09375 C 329.90625 269.09375 331.867188 267.507812 331.867188 264.335938 C 331.867188 262.042969 329.386719 260 324.421875 258.203125 C 322.292969 257.453125 320.65625 256.558594 319.507812 255.511719 C 318.363281 254.472656 317.785156 253.050781 317.785156 251.257812 C 317.785156 248.753906 318.640625 246.78125 320.351562 245.34375 C 322.0625 243.90625 324.316406 243.1875 327.109375 243.1875 C 328.320312 243.1875 329.417969 243.394531 330.398438 243.808594 C 331.378906 244.230469 332.054688 244.625 332.429688 245 L 332.992188 245.628906 L 333.183594 243.75 L 334.371094 243.75 L 334.246094 251.636719 L 333.117188 251.636719 C 333.035156 251.050781 332.972656 250.601562 332.933594 250.289062 C 332.890625 249.976562 332.785156 249.457031 332.617188 248.726562 C 332.453125 247.996094 332.222656 247.425781 331.929688 247.003906 C 331.636719 246.589844 331.261719 246.140625 330.800781 245.660156 C 330.34375 245.179688 329.738281 244.828125 328.988281 244.597656 C 328.238281 244.367188 327.402344 244.253906 326.484375 244.253906 C 325.191406 244.253906 324.140625 244.65625 323.324219 245.472656 C 322.511719 246.285156 322.105469 247.320312 322.105469 248.570312 C 322.105469 249.277344 322.261719 249.914062 322.574219 250.476562 C 322.890625 251.039062 323.324219 251.519531 323.890625 251.914062 C 324.453125 252.3125 325.003906 252.625 325.546875 252.855469 C 326.089844 253.082031 326.777344 253.347656 327.609375 253.636719 C 328.445312 253.929688 329.070312 254.160156 329.488281 254.328125 C 334.078125 256.371094 336.375 258.875 336.375 261.835938 C 336.375 264.800781 335.539062 267 333.871094 268.3125 C 332.203125 269.628906 329.574219 270.285156 325.984375 270.285156 Z M 325.988281 270.28125 " fill-opacity="1" fill-rule="nonzero"/><path fill="#b9b9b9" d="M 121.0625 214.984375 L 83.886719 104.460938 L 83.335938 104.460938 C 79.410156 104.460938 76.582031 106.039062 74.867188 109.195312 C 74.132812 110.433594 73.332031 112.292969 72.476562 114.769531 L 42.476562 194.371094 C 42.3125 194.816406 33.527344 217.078125 33.363281 217.511719 C 34.625 217.664062 35.898438 217.789062 37.179688 217.875 C 37.476562 216.769531 46.445312 193.808594 46.894531 192.679688 L 70.820312 128.796875 L 71.921875 128.796875 L 100.632812 214.988281 L 101.46875 217.691406 L 122.097656 217.691406 L 121.0625 214.988281 Z M 121.0625 214.984375 " fill-opacity="1" fill-rule="nonzero"/><path fill="#b9b9b9" d="M 151.191406 110.542969 L 151.191406 107.839844 L 132.402344 107.839844 L 132.402344 217.691406 L 151.191406 217.691406 Z M 151.191406 110.542969 " fill-opacity="1" fill-rule="nonzero"/><path fill="#b9b9b9" d="M 207.75 121.363281 C 199.429688 112.347656 187.261719 107.839844 171.25 107.839844 L 161.460938 107.839844 L 161.460938 110.546875 L 168.878906 110.546875 C 181.835938 110.546875 190.53125 115.507812 194.953125 125.417969 C 197.164062 130.265625 198.71875 135.558594 199.613281 141.304688 C 200.507812 147.046875 200.953125 154.207031 200.953125 162.765625 C 200.953125 171.328125 200.53125 178.515625 199.691406 184.316406 C 198.847656 190.117188 197.214844 195.496094 194.792969 200.453125 C 190.15625 210.144531 180.464844 214.988281 165.71875 214.988281 L 161.460938 214.988281 L 161.460938 217.691406 L 169.039062 217.691406 C 186.628906 217.691406 199.558594 212.992188 207.828125 203.582031 C 216.097656 194.175781 220.234375 180.375 220.234375 162.175781 C 220.234375 143.976562 216.074219 130.378906 207.75 121.363281 Z M 207.75 121.363281 " fill-opacity="1" fill-rule="nonzero"/></svg>